/* XPM */
static char *bitcoin__[] = {
/* columns rows colors chars-per-pixel */
"64 64 235 2 ",
"   c #000000",
".  c #0A0502",
"X  c #070805",
"o  c #0C0A05",
"O  c #020408",
"+  c #0D0D08",
"@  c #110702",
"#  c #130C06",
"$  c #1A0D06",
"%  c #120F08",
"&  c #14130B",
"*  c #1B140B",
"=  c #1C190F",
"-  c #0F1215",
";  c #161610",
":  c #1D1C11",
">  c #121418",
",  c #1B1B1D",
"<  c #251107",
"1  c #23150A",
"2  c #2B160A",
"3  c #231A0E",
"4  c #2C1B0E",
"5  c #301E0F",
"6  c #241E12",
"7  c #2B1E10",
"8  c #311F10",
"9  c #3C210F",
"0  c #242215",
"q  c #2B2314",
"w  c #27241F",
"e  c #2A261A",
"r  c #2C2A19",
"t  c #342312",
"y  c #3C2513",
"u  c #352916",
"i  c #3C2916",
"p  c #342D1A",
"a  c #3B2E19",
"s  c #34321E",
"d  c #3B321D",
"f  c #232322",
"g  c #312D29",
"h  c #343422",
"j  c #3B3721",
"k  c #3C3A24",
"l  c #39332C",
"z  c #402713",
"x  c #422A15",
"c  c #4C2D16",
"v  c #422F19",
"b  c #502E16",
"n  c #42341D",
"m  c #4B331B",
"M  c #53351B",
"N  c #59361A",
"B  c #55391E",
"V  c #5B3A1E",
"C  c #623D1E",
"Z  c #413720",
"A  c #423C23",
"S  c #4A3A21",
"D  c #553E21",
"F  c #443D31",
"G  c #643F20",
"H  c #454126",
"J  c #4B4327",
"K  c #44422B",
"L  c #4A472E",
"P  c #4E4A2C",
"I  c #544325",
"U  c #5D4425",
"Y  c #52442A",
"T  c #534B2B",
"R  c #5A4B2B",
"E  c #4D4333",
"W  c #4E4D34",
"Q  c #534736",
"!  c #534F31",
"~  c #5A4C39",
"^  c #5A5431",
"/  c #5F5B36",
"(  c #654323",
")  c #6A4523",
"_  c #6F4926",
"`  c #634C2B",
"'  c #694E2B",
"]  c #704724",
"[  c #744A26",
"{  c #794C27",
"}  c #704F2A",
"|  c #7B4E28",
" . c #63512E",
".. c #6B502C",
"X. c #73542E",
"o. c #7C532B",
"O. c #7F582E",
"+. c #615430",
"@. c #6C5731",
"#. c #605A34",
"$. c #6E5A33",
"%. c #665E38",
"&. c #765730",
"*. c #755A32",
"=. c #7A5930",
"-. c #66623A",
";. c #6A643B",
":. c #6F6A3F",
">. c #7B6237",
",. c #766239",
"<. c #7E653D",
"1. c #77683C",
"2. c #7E693D",
"3. c #6B6941",
"4. c #756D40",
"5. c #7A6F41",
"6. c #767042",
"7. c #7C7445",
"8. c #7A7748",
"9. c #83542B",
"0. c #88562C",
"q. c #81582E",
"w. c #8A5A2F",
"e. c #835C31",
"r. c #8D5E31",
"t. c #836135",
"y. c #8D6235",
"u. c #846D3E",
"i. c #886F3E",
"p. c #936434",
"a. c #966A3A",
"s. c #9A6C3A",
"d. c #8C703E",
"f. c #96713E",
"g. c #9E713D",
"h. c #A3753F",
"j. c #826540",
"k. c #846E44",
"l. c #946E40",
"z. c #857644",
"x. c #8F7541",
"c. c #807A47",
"v. c #8C7A46",
"b. c #817B49",
"n. c #8F7E49",
"m. c #957543",
"M. c #9A7540",
"N. c #967C46",
"B. c #9C7D46",
"V. c #967F48",
"C. c #997949",
"Z. c #A27741",
"A. c #A57B44",
"S. c #AA7D43",
"D. c #87814C",
"F. c #8B844E",
"G. c #95834C",
"H. c #9C854C",
"J. c #938B52",
"K. c #9B8D52",
"L. c #989055",
"P. c #999358",
"I. c #A68046",
"U. c #AB8147",
"Y. c #A5844A",
"T. c #AB864A",
"R. c #A48A4F",
"E. c #AE8B4E",
"W. c #B18649",
"Q. c #B58C4D",
"!. c #BB8C4C",
"~. c #AC8C51",
"^. c #B18F52",
"/. c #A79657",
"(. c #AD9253",
"). c #A49B5C",
"_. c #AF9B59",
"`. c #B69353",
"'. c #BA9553",
"]. c #BE9A57",
"[. c #BB9E5A",
"{. c #ACA15F",
"}. c #B3A25D",
"|. c #BCA15C",
" X c #AAA564",
".X c #B0A561",
"XX c #B6AB64",
"oX c #BAAB63",
"OX c #B3AD68",
"+X c #BCB269",
"@X c #BBB770",
"#X c #C09B57",
"$X c #C89C57",
"%X c #C19D58",
"&X c #C2A55E",
"*X c #C3AC63",
"=X c #CBAF64",
"-X c #D2AC61",
";X c #C8B266",
":X c #C3B369",
">X c #C9B569",
",X c #C3BB6F",
"<X c #CBBC6E",
"1X c #DDB465",
"2X c #D0BE6F",
"3X c #C6BE70",
"4X c #CCBF70",
"5X c #E0B465",
"6X c #E3BC6B",
"7X c #C6C173",
"8X c #CEC374",
"9X c #D2C474",
"0X c #DCC976",
"qX c #D4CD7A",
"wX c #D7D07D",
"eX c #D9D37E",
"rX c #E7C16D",
"tX c #E9C46F",
"yX c #E9C470",
"uX c #E6CC75",
"iX c #E5D77F",
"pX c #E8D67E",
"aX c #E7D87E",
"sX c #EED97F",
"dX c #F5D379",
"fX c #F7D97D",
"gX c #FCDB7E",
"hX c #EEDD81",
"jX c #F1DD81",
"kX c #FFDF80",
"lX c #EEE083",
"zX c #F3E284",
"xX c #FFE484",
"cX c #FFEC89",
"vX c None",
/* pixels */
"vXvXvXvXvXvXvXvXvXvXvXvXvXvXvXvXvXvXvXvXvXvXvXvXvXvXvXvXvXvXvXvXvXvXvXvXvXvXvXvXvXvXvXvXvXvXvXvXvXvXvXvXvXvXvXvXvXvXvXvXvXvXvXvX",
"vXvXvXvXvXvXvXvXvXvXvXvXvXvXvXvXvXvXvXvXvXvXvXvXvXvXvXvXvXvXvXvXvXvXvXvXvXvXvXvXvXvXvXvXvXvXvXvXvXvXvXvXvXvXvXvXvXvXvXvXvXvXvXvX",
"vXvXvXvXvXvXvXvXvXvXvXvXvXvXvXvXvXvXvXvXvXvXvXvXvXvXvX! W L j h h k L W W vXvXvXvXvXvXvXvXvXvXvXvXvXvXvXvXvXvXvXvXvXvXvXvXvXvXvX",
"vXvXvXvXvXvXvXvXvXvXvXvXvXvXvXvXvXvXvXvXvXvXvXk 0 : + : :     d j     : = X : 0 k vXvXvXvXvXvXvXvXvXvXvXvXvXvXvXvXvXvXvXvXvXvXvX",
"vXvXvXvXvXvXvXvXvXvXvXvXvXvXvXvXvXvXvXvXH r X 0 A     Y.aX& . !.zX& . ].8X    n r   q k vXvXvXvXvXvXvXvXvXvXvXvXvXvXvXvXvXvXvXvX",
"vXvXvXvXvXvXvXvXvXvXvXvXvXvXvXvXvXvXj = &     g.cXk   [ H.;   m  .  . e.G.O < 1X3X    & & d vXvXvXvXvXvXvXvXvXvXvXvXvXvXvXvXvXvX",
"vXvXvXvXvXvXvXvXvXvXvXvXvXvXvXvXd +   m jX;.  x &.&                         . ..^   x uX-.  X p vXvXvXvXvXvXvXvXvXvXvXvXvXvXvXvX",
"vXvXvXvXvXvXvXvXvXvXvXvXvXvX+.* 0 0   y W.^       X r ^ c.).OX,X7X@X XF.-.s X       9 |.^   q q & T vXvXvXvXvXvXvXvXvXvXvXvXvXvX",
"vXvXvXvXvXvXvXvXvXvXvXvXvXa X   &XpX=       X J K.:X<XXXL.8.;.-.-.3.8.P.+X8X8X).^ %       @ W.iXo   p vXvXvXvXvXvXvXvXvXvXvXvXvX",
"vXvXvXvXvXvXvXvXvXvXvXvX7 X     V &.X   = 2.*X|.5.d X                     X p 1.oX>Xz.0     } 7.  . . = vXvXvXvXvXvXvXvXvXvXvXvX",
"vXvXvXvXvXvXvXvXvXvXvX= # 2X{.      o >.&XG.p             .   . . O .             r G.*Xz.&       o.uX0 % vXvXvXvXvXvXvXvXvXvXvX",
"vXvXvXvXvXvXvXvXvXvX%   % s.d..   Z ].G.0                                             = v.&XR     ..:X:   o U vXvXvXvXvXvXvXvXvX",
"vXvXvXvXvXvXvXvXvX& k H   .     >.`.Z                                                     a '.x.o   .   i Z & vXvXvXvXvXvXvXvXvX",
"vXvXvXvXvXvXvXvX3 . =XuX=   % A.m.%                                                     .   X d.E.=   @ W.hX% * vXvXvXvXvXvXvXvX",
"vXvXvXvXvXvXvXt     c M   & I.*.                                                                ..Q.3   I /     7 vXvXvXvXvXvXvX",
"vXvXvXvXvXvXv & ^ :     # A...  .                                                                 I W.=     $ I & i vXvXvXvXvXvX",
"vXvXvXvXvXvX. Y xXv.  X a.X.                                                                        U A.#   V xX:.  vXvXvXvXvXvX",
"vXvXvXvXvXt   $ C 4   } t.                                                                            &.t.  3 5.=   7 vXvXvXvXvX",
"vXvXvXvXvXo & X     i h.&                                                                             . a.B     . 1 . m vXvXvXvX",
"vXvXvXvX$ A zXz.  @ a.a                                                                                 7 g.*   N rX/ # vXvXvXvX",
"vXvXvXvX. t g.B   U q.                      # * & & * +                 # * & * * %                       ' }   v +Xs   vXvXvXvX",
"vXvXvXt         o p.4                       1.].E.T.W.`                 U Q.T.T.].u.                      $ a.1         7 vXvXvX",
"vXvXvX# P c.+   B o.                        u.%X^.T.Q...                ` Q.E.E.].i.                        ( )   . G  .# vXvXvX",
"vXvXvX. |.6Xq   w.y                         u.%XE.E.Q...                 .Q.T.E.].i.                        3 p.. @ -XqX. x vXvX",
"vXvXt   < 9   4 w..                         u.%X^.T.Q...                ..Q.T.E.#Xi.                          O.i   A r   7 vXvX",
"vXvX*         V (                           u.].E.T.Q...                 .Q.T.E.#Xi.                          N )     .   * vXvX",
"vXvX@ c.2X3   { i                           2.%X^.T.Q...                ` Q.T.E.#Xi.                          7 9.  $ g.H.# vXvX",
"vXvX  x.!.1   0.1                           u.#XE.T.^...                ` Q.T.E.#Xk.                          o 0.$ . *X X  vXvX",
"vXvX.   .   * 9..                           2.%XE.T.Q...                ` Q.T.E.].i.                            | 5   +     t vX",
"vXt   : &   4 9.                            u.%XE.E.Q...  X         .   ` Q.T.E.].i.                            ] y   @ <   t vX",
"vX$ q jXR.  y {                             2.%XE.T.Q...                ` Q.T.E.#Xi.                            ( b   O.tXA $ vX",
"vX4 & M.(   y [                         .   2.%X^.T.Q...                ` Q.T.E.].i.                            G M   +.XX= 2 vX",
"vX5         9 [                             2.%X^.T.Q...                ` Q.T.E.].i.                            C M         5 vX",
"vX7   j A   t {                             2.%X^.E.Q...                ` Q.E.E.#Xi.                            ) x   2 z   5 vX",
"vXvX* hX%X  1 9.                            2.%XE.T.Q...                ` Q.T.E.].i.                            | t   T.fXp < vX",
"vXvXo ` M   # 0.$                       .   2.%X^.T.Q...  .             ` Q.T.E.].x.                            9.2   ! 4.X vXvX",
"vXvX#         9.7                           u.%XE.T.E.*.                &.Q.T.E.].k.                          * 0.o       . vXvX",
"vXvX$ & J.j   ) M                           ,.%XE.E.W.f.o             X f.T.T.E.%X,.                          x |   4 o.q @ vXvX",
"vXvX@ T gXO.  i |                       .   R #XE.E.T.W.U             U W.I.W.E.%XY                           _ B   @.cX%.@ vXvX",
"vXvXx X x $   $ r.*                         e ].^.T.T.I.S.' * . @ 3 ' S.A.T.E.E.`.6                         # r.1   & A X 8 vXvX",
"vXvXvX#   X +   ] V                           k.'.T.T.S.A.A.g.r.y.h.Z.Z.A.U.T.'.k.                          m q.  . @   @ vXvXvX",
"vXvXvX1 & 9XN.  7 p.o                         f ^.Q.T.A.A.M.s.s.s.s.h.Z.A.T.E.^.w                           r.x   =.$Xr # vXvXvX",
"vXvXvXz : ].| .   q.B                           F E.W.A.Z.h.s.a.a.s.g.Z.A.T.E.E                           v y..   5.9X0 5 vXvXvX",
"vXvXvXvX*         7 s.%                         O F C.T.S.h.g.s.a.s.h.S.U.C.F                           . a.a         # vXvXvXvX",
"vXvXvXvXm   & F.u   } =.                            f ~ j.l.s.a.a.s.a.5.Q ,                             ' w.  1 { 8   i vXvXvXvX",
"vXvXvXvXvX@ ^ xX_   o s.S   .                         O > f g l l g f > O                             a A.*   +.cX1.  vXvXvXvXvX",
"vXvXvXvXvXm & v $     7 S.q                                                                         3 S.i     o H & i vXvXvXvXvX",
"vXvXvXvXvXvX7     #.a   m U.3                                                                     % T.U   4 N #   3 vXvXvXvXvXvX",
"vXvXvXvXvXvXvX# r cXs.    U W.3                                                                 * T...    G.kXS . vXvXvXvXvXvXvX",
"vXvXvXvXvXvXvXD & U t       D '.d     .                                                       r ^...  .   q -.& m vXvXvXvXvXvXvX",
"vXvXvXvXvXvXvXvXm     s G.1   a '.*.                                                        +.].I   * o.x     i vXvXvXvXvXvXvXvX",
"vXvXvXvXvXvXvXvXvXS   b.dXb     * H.(.d       .                                         q E.~.q     j cXG.  n vXvXvXvXvXvXvXvXvX",
"vXvXvXvXvXvXvXvXvXvXa & v . X p     R ].H.p           .                   .         0 n.*X$..   2 @   j : r vXvXvXvXvXvXvXvXvXvX",
"vXvXvXvXvXvXvXvXvXvXvXn .   6.dXb     % ,.&X/. .&                             & ^ /.=Xz.*     J yXt.    a vXvXvXvXvXvXvXvXvXvXvX",
"vXvXvXvXvXvXvXvXvXvXvXvX..# k R.4   r $   & ^ _.>X}.z.P r & X     X & r P 8.{.2XoX:.*   . 4   = ).P . R vXvXvXvXvXvXvXvXvXvXvXvX",
"vXvXvXvXvXvXvXvXvXvXvXvXvXvX0     q sXy.        : #.J.+X8XqX8XqXwXwXeXwX,X).;.0         G.1Xx     6 vXvXvXvXvXvXvXvXvXvXvXvXvXvX",
"vXvXvXvXvXvXvXvXvXvXvXvXvXvXvXT & + /.(   k x.<         + : r A H h : %         = >.c   P {.= & T vXvXvXvXvXvXvXvXvXvXvXvXvXvXvX",
"vXvXvXvXvXvXvXvXvXvXvXvXvXvXvXvXvXd X .   D.fXc   ^ } #   . .       .   X @.V   j cXm.    X s vXvXvXvXvXvXvXvXvXvXvXvXvXvXvXvXvX",
"vXvXvXvXvXvXvXvXvXvXvXvXvXvXvXvXvXvXvXH : & d X   +X6X2   oXQ.$ X :XS.@ & hX]..   p 0 = J vXvXvXvXvXvXvXvXvXvXvXvXvXvXvXvXvXvXvX",
"vXvXvXvXvXvXvXvXvXvXvXvXvXvXvXvXvXvXvXvXvX^ r : X 0 d     F.R..   J.H..   p d   : r ! vXvXvXvXvXvXvXvXvXvXvXvXvXvXvXvXvXvXvXvXvX",
"vXvXvXvXvXvXvXvXvXvXvXvXvXvXvXvXvXvXvXvXvXvXvXvXvXK r s : ; ; & & & , : h h k vXvXvXvXvXvXvXvXvXvXvXvXvXvXvXvXvXvXvXvXvXvXvXvXvX",
"vXvXvXvXvXvXvXvXvXvXvXvXvXvXvXvXvXvXvXvXvXvXvXvXvXvXvXvXvXvXvXvXvXvXvXvXvXvXvXvXvXvXvXvXvXvXvXvXvXvXvXvXvXvXvXvXvXvXvXvXvXvXvXvX",
"vXvXvXvXvXvXvXvXvXvXvXvXvXvXvXvXvXvXvXvXvXvXvXvXvXvXvXvXvXvXvXvXvXvXvXvXvXvXvXvXvXvXvXvXvXvXvXvXvXvXvXvXvXvXvXvXvXvXvXvXvXvXvXvX",
"vXvXvXvXvXvXvXvXvXvXvXvXvXvXvXvXvXvXvXvXvXvXvXvXvXvXvXvXvXvXvXvXvXvXvXvXvXvXvXvXvXvXvXvXvXvXvXvXvXvXvXvXvXvXvXvXvXvXvXvXvXvXvXvX"
};
