/* XPM */
static char *bitcoin__[] = {
/* columns rows colors chars-per-pixel */
"32 32 95 2 ",
"   c #010000",
".  c #0A0502",
"X  c #0D0905",
"o  c #120B05",
"O  c #1A0F07",
"+  c #130F09",
"@  c #15110A",
"#  c #1B150B",
"$  c #1D190E",
"%  c #1E1C12",
"&  c #22150B",
"*  c #22190E",
"=  c #2A1B0E",
"-  c #351F0F",
";  c #251E11",
":  c #2A1F10",
">  c #221E19",
",  c #321F10",
"<  c #252214",
"1  c #2B2314",
"2  c #2E2A1A",
"3  c #342514",
"4  c #3B2412",
"5  c #362816",
"6  c #3F2915",
"7  c #342D1A",
"8  c #3B2E19",
"9  c #36311D",
"0  c #3C321D",
"q  c #343322",
"w  c #3D3720",
"e  c #3D3A23",
"r  c #412613",
"t  c #442B16",
"y  c #482C16",
"u  c #452E18",
"i  c #43351E",
"p  c #4A331B",
"a  c #49381F",
"s  c #53371D",
"d  c #52391E",
"f  c #423B22",
"g  c #4A3E23",
"h  c #563D21",
"j  c #454126",
"k  c #4C4125",
"l  c #4C442A",
"z  c #524326",
"x  c #5B4526",
"c  c #54442C",
"v  c #594728",
"b  c #544A2B",
"n  c #5B4D2C",
"m  c #5D512E",
"M  c #555131",
"N  c #595634",
"B  c #5D5935",
"V  c #604726",
"C  c #654826",
"Z  c #644C2A",
"A  c #60522F",
"S  c #69522D",
"D  c #634B30",
"F  c #655531",
"G  c #645B35",
"H  c #6C5B34",
"J  c #725D34",
"K  c #696037",
"L  c #66633B",
"P  c #6B633A",
"I  c #6E683D",
"U  c #736237",
"Y  c #756339",
"T  c #7A653B",
"R  c #77683C",
"E  c #6E6B41",
"W  c #706B40",
"Q  c #826437",
"!  c #846539",
"~  c #8D6C3C",
"^  c #916537",
"/  c #916F3D",
"(  c #93703E",
")  c #A3723C",
"_  c #957A45",
"`  c #987C46",
"'  c #A67A43",
"]  c #AA7C43",
"[  c #AB8246",
"{  c #A2844B",
"}  c #AB834A",
"|  c #BC9553",
" . c #BF9854",
".. c #CDA25A",
"X. c None",
/* pixels */
"X.X.X.X.X.X.X.X.X.X.X.X.X.X.X.X.X.X.X.X.X.X.X.X.X.X.X.X.X.X.X.X.",
"X.X.X.X.X.X.X.X.X.X.X.X.% e 2 9 e 2 e > X.X.X.X.X.X.X.X.X.X.X.X.",
"X.X.X.X.X.X.X.X.X.f < i l 5 k 3 f 8 e f k $ e X.X.X.X.X.X.X.X.X.",
"X.X.X.X.X.X.X.X.2 1 H + 0 7 b N B M 9 0 @ A 9 1 X.X.X.X.X.X.X.X.",
"X.X.X.X.X.X.7 @ T + 5 G P B l j j l L I K 0 . Y $ 3 X.X.X.X.X.X.",
"X.X.X.X.X.  n k . H m $                 % m U + 8 G   X.X.X.X.X.",
"X.X.X.X.# Y X 5 U $                         $ J 0   J ; X.X.X.X.",
"X.X.X.8 1 * u n                                 n p < 1 8 X.X.X.",
"X.X.X.; J & V                                     x & H 2 X.X.X.",
"X.X.8 M   C X                                     . C . z i X.X.",
"X.X.# 8 u 5           z S a         a S z           3 u w $ X.X.",
"X.* Y # s             { ..~         ~ ..{             s O J 1 X.",
"X.# $ , r             _ | Q         Q | _             4 3 % O X.",
"X.z b - *             _  .!         Q | `             # 4 g n X.",
"X.* + y o             _  .!         ! | `             X y + * X.",
"X.A 0 r X             _  .!         ! | `             . r 5 G X.",
"X.; # y X             _  .!         Q | `             . y # & X.",
"X.n 8 4 O             _  .!         !  .`             + 6 7 A X.",
"X.# 2 4 =             _ | _ .       / | _             & r 1 # X.",
"X.i v O u             T | ] v . X x [ | T             u & b f X.",
"X.o w 7 s .           2 | } ' ^ ^ ' ] | 2           . s 3 i o X.",
"X.X.g * : p             c } ' ) ) ] } l             u 3 $ l X.X.",
"X.X.. G 3 g *             > c D D c %             # h 1 H . X.X.",
"X.X.X.: 1 : Z +                                 X S * 1 1 X.X.X.",
"X.X.X.X.A 8 O J #                             @ J # 7 F   X.X.X.",
"X.X.X.X.. 7 H   H g             .           f J . F 8 . X.X.X.X.",
"X.X.X.X.X.p # n # 9 Y k #             # k R f $ x $ f X.X.X.X.X.",
"X.X.X.X.X.X.X.k ; b X k P I I L L E W I l X z 1 l : X.X.X.X.X.X.",
"X.X.X.X.X.X.X.X.7 f 7 v + 8 < e j 2 7 + b 5 f 9 X.X.X.X.X.X.X.X.",
"X.X.X.X.X.X.X.X.X.X.e 1 j f f p e p e k 1 j X.X.X.X.X.X.X.X.X.X.",
"X.X.X.X.X.X.X.X.X.X.X.X.X.X.q q q e X.X.X.X.X.X.X.X.X.X.X.X.X.X.",
"X.X.X.X.X.X.X.X.X.X.X.X.X.X.X.X.X.X.X.X.X.X.X.X.X.X.X.X.X.X.X.X."
};
