/* XPM */
static char *bitcoin__[] = {
/* columns rows colors chars-per-pixel */
"16 16 110 2 ",
"   c black",
".  c #010000",
"X  c #010100",
"o  c #000101",
"O  c #010101",
"+  c #020100",
"@  c #050403",
"#  c #050503",
"$  c #0A0502",
"%  c #0B0503",
"&  c #0B0603",
"*  c #0B0A08",
"=  c #0C0B08",
"-  c #0D0B08",
";  c #0C0B09",
":  c #150C06",
">  c #170E07",
",  c #180F07",
"<  c #1A0F08",
"1  c #1B130A",
"2  c #1C140B",
"3  c #1D150B",
"4  c #251B0E",
"5  c #241D10",
"6  c #241E11",
"7  c #2E1F10",
"8  c #242315",
"9  c #252416",
"0  c #2F2615",
"q  c #2F2716",
"w  c #2E2A19",
"e  c #2D2B1A",
"r  c #2F2D1A",
"t  c #2E2D1B",
"y  c #302011",
"u  c #322212",
"i  c #3C2B17",
"p  c #3D2B17",
"a  c #332B18",
"s  c #342A18",
"d  c #342B18",
"f  c #34281A",
"g  c #35291B",
"h  c #342C19",
"j  c #352C19",
"k  c #362D19",
"l  c #362D1A",
"z  c #372D1A",
"x  c #372E1A",
"c  c #3E2F19",
"v  c #3F2F19",
"b  c #3E2F1A",
"n  c #37301C",
"m  c #37311C",
"M  c #38301B",
"N  c #39301B",
"B  c #3A301B",
"V  c #3C301B",
"C  c #3D311B",
"Z  c #3A311C",
"A  c #3B311C",
"S  c #39331E",
"D  c #3B351F",
"F  c #3C341E",
"G  c #3F361F",
"H  c #3B3821",
"J  c #42321B",
"K  c #41321C",
"L  c #42321C",
"P  c #41361E",
"I  c #42361E",
"U  c #43371F",
"Y  c #44351D",
"T  c #44351E",
"R  c #44361E",
"E  c #46371E",
"W  c #453920",
"Q  c #463920",
"!  c #473B21",
"~  c #443B22",
"^  c #453C23",
"/  c #463D23",
"(  c #4A3D23",
")  c #493E23",
"_  c #483F24",
"`  c #4B3E24",
"'  c #484025",
"]  c #494025",
"[  c #494127",
"{  c #4F482A",
"}  c #544527",
"|  c #554527",
" . c #564728",
".. c #51492B",
"X. c #584828",
"o. c #5A4A29",
"O. c #5B4A29",
"+. c #7E6337",
"@. c #917242",
"#. c #927343",
"$. c #A47540",
"%. c #A57741",
"&. c #A27F47",
"*. c #A28047",
"=. c #A48148",
"-. c #AC874B",
";. c #AE894C",
":. c #B88F4F",
">. c #B99150",
",. c None",
/* pixels */
",.,.,.,.,.,.,.,.,.,.,.,.,.,.,.,.",
",.,.,.,.k G _ { ..] I M ,.,.,.,.",
",.,.,.M Q ~ a 8 9 r / ~ M ,.,.,.",
",.,.M Y 5 o o o o o o 5 Y M ,.,.",
",.k J 3 o o o o o o o o 3 J x ,.",
",.C y o o I +.o o +.I o o y C ,.",
"s v > o o o.;.o o -.o.o o : v s ",
"k i % o o | =.o o &.| o o % v k ",
"k p $ o o  .=.o o &.X.o o $ i x ",
"s v < o o ` >.1 1 :.( o o < v s ",
",.V y o o - #.%.$.@.* o o y v ,.",
",.k J 4 o o * s s * o o 5 L k ,.",
",.,.A Y q @ o o o o @ q Y A ,.,.",
",.,.,.A U _ G e r H ' W C ,.,.,.",
",.,.,.,.,.D W ] ] ^ G A ,.,.,.,.",
",.,.,.,.,.,.,.,.,.,.,.,.,.,.,.,."
};
